<?xml version="1.0" encoding="UTF-8" standalone="no"?>
<svg
   width="64"
   height="64"
   version="1.1"
   id="svg6"
   sodipodi:docname="panel_corners.svg"
   inkscape:version="1.3.2 (091e20e, 2023-11-25, custom)"
   inkscape:export-filename="Selector_NotSelected.png"
   inkscape:export-xdpi="96"
   inkscape:export-ydpi="96"
   xmlns:inkscape="http://www.inkscape.org/namespaces/inkscape"
   xmlns:sodipodi="http://sodipodi.sourceforge.net/DTD/sodipodi-0.dtd"
   xmlns="http://www.w3.org/2000/svg"
   xmlns:svg="http://www.w3.org/2000/svg">
  <sodipodi:namedview
     id="namedview6"
     pagecolor="#ffffff"
     bordercolor="#666666"
     borderopacity="1.0"
     inkscape:showpageshadow="2"
     inkscape:pageopacity="0.0"
     inkscape:pagecheckerboard="0"
     inkscape:deskcolor="#d1d1d1"
     inkscape:zoom="4"
     inkscape:cx="-3.25"
     inkscape:cy="34.125"
     inkscape:window-width="1538"
     inkscape:window-height="1011"
     inkscape:window-x="2560"
     inkscape:window-y="0"
     inkscape:window-maximized="0"
     inkscape:current-layer="svg6"
     inkscape:export-bgcolor="#ffffff00" />
  <defs
     id="defs1" />
  <g
     id="g1"
     transform="translate(-25.25,-80.25)">
    <g
       id="g6"
       inkscape:export-filename="Selector.png"
       inkscape:export-xdpi="96"
       inkscape:export-ydpi="96">
      <path
         stroke="none"
         fill="#8a3d36"
         d="M 46,2 Q 46,1.15 46.6,0.55 47.15,0 48,0 h 12 q 0.85,0 1.45,0.55 l 2,2 Q 64,3.15 64,4 v 12 q 0,0.85 -0.55,1.4 Q 62.85,18 62,18 61.15,18 60.6,17.4 L 60,16.8 58.6,15.4 Q 58,14.85 58,14 V 10 H 56 Q 55.15,10 54.6,9.4 54,8.85 54,8 V 6 H 50 Q 49.15,6 48.6,5.4 L 47.2,4 46.6,3.4 Q 46,2.85 46,2 m 16,44 q 0.85,0 1.45,0.6 Q 64,47.15 64,48 v 12 q 0,0.85 -0.55,1.45 l -2,2 Q 60.85,64 60,64 H 48 Q 47.15,64 46.6,63.45 46,62.85 46,62 46,61.15 46.6,60.6 L 47.2,60 48.6,58.6 Q 49.15,58 50,58 h 4 V 56 Q 54,55.15 54.6,54.6 55.15,54 56,54 h 2 v -4 q 0,-0.85 0.6,-1.4 L 60,47.2 60.6,46.6 Q 61.15,46 62,46 M 18,62 q 0,0.85 -0.6,1.45 Q 16.85,64 16,64 H 4 Q 3.15,64 2.55,63.45 l -2,-2 Q 0,60.85 0,60 V 48 Q 0,47.15 0.55,46.6 1.15,46 2,46 2.85,46 3.4,46.6 L 4,47.2 5.4,48.6 Q 6,49.15 6,50 v 4 h 2 q 0.85,0 1.4,0.6 0.6,0.55 0.6,1.4 v 2 h 4 q 0.85,0 1.4,0.6 l 1.4,1.4 0.6,0.6 Q 18,61.15 18,62 M 2,18 Q 1.15,18 0.55,17.4 0,16.85 0,16 V 4 Q 0,3.15 0.55,2.55 l 2,-2 Q 3.15,0 4,0 H 16 Q 16.85,0 17.4,0.55 18,1.15 18,2 18,2.85 17.4,3.4 L 16.8,4 15.4,5.4 Q 14.85,6 14,6 H 10 V 8 Q 10,8.85 9.4,9.4 8.85,10 8,10 H 6 v 4 q 0,0.85 -0.6,1.4 L 4,16.8 3.4,17.4 Q 2.85,18 2,18 M 62,8 V 4 L 60,2 h -4 -4 -4 l 2,2 h 2 4 l 2,2 h -2 v 2 h 2 V 6 l 2,2 v 4 2 l 2,2 V 12 8 m 0,44 v -4 l -2,2 v 2 4 l -2,2 v -2 h -2 v 2 h 2 l -2,2 h -4 -2 l -2,2 h 4 4 4 l 2,-2 V 56 52 M 12,2 H 8 4 L 2,4 v 4 4 4 L 4,14 V 12 8 L 6,6 V 8 H 8 V 6 H 6 L 8,4 h 4 2 L 16,2 H 12 M 4,52 V 50 L 2,48 v 4 4 4 l 2,2 h 4 4 4 L 14,60 H 12 8 L 6,58 H 8 V 56 H 6 v 2 L 4,56 v -4"
         id="path1" />
      <path
         stroke="none"
         fill="#ec6a5e"
         d="M 4,52 H 2 v -4 l 2,2 v 2 M 56,2 h 4 l 2,2 V 8 H 60 L 58,6 V 8 H 56 V 6 h 2 L 56,4 V 2 m 6,10 v 4 l -2,-2 v -2 h 2 M 52,4 H 50 L 48,2 h 4 v 2 m 8,48 v -2 l 2,-2 v 4 h -2 m 2,4 v 4 l -2,2 h -4 v -2 l 2,-2 h -2 v -2 h 2 v 2 l 2,-2 h 2 m -10,6 h -4 l 2,-2 h 2 v 2 M 12,4 V 2 h 4 L 14,4 H 12 M 8,2 V 4 L 6,6 H 8 V 8 H 6 V 6 L 4,8 H 2 V 4 L 4,2 H 8 M 4,12 v 2 l -2,2 v -4 h 2 m 0,44 2,2 v -2 h 2 v 2 H 6 l 2,2 v 2 H 4 L 2,60 v -4 h 2 m 8,4 h 2 l 2,2 h -4 v -2"
         id="path2" />
      <path
         stroke="none"
         fill="#cf5e53"
         d="m 12,60 v 2 H 8 v -2 h 4 M 62,8 v 4 H 60 V 8 h 2 M 56,4 H 52 V 2 h 4 v 2 m 6,48 v 4 h -2 v -4 h 2 m -6,10 h -4 v -2 h 4 v 2 M 12,2 V 4 H 8 V 2 h 4 M 4,8 v 4 H 2 V 8 H 4 M 2,52 h 2 v 4 H 2 v -4"
         id="path3" />
      <path
         stroke="none"
         fill="#515f6b"
         d="m 46,2 q 0,0.85 0.6,1.4 L 47.2,4 H 16.8 L 17.4,3.4 Q 18,2.85 18,2 h 28 m 14,14.8 0.6,0.6 Q 61.15,18 62,18 v 28 q -0.85,0 -1.4,0.6 L 60,47.2 V 16.8 M 46,62 H 18 q 0,-0.85 -0.6,-1.4 L 16.8,60 h 30.4 l -0.6,0.6 Q 46,61.15 46,62 M 2,46 V 18 q 0.85,0 1.4,-0.6 L 4,16.8 V 47.2 L 3.4,46.6 Q 2.85,46 2,46"
         id="path4" />
    </g>
  </g>
  <rect
     style="fill:none;fill-opacity:1;stroke:#515f6b;stroke-width:2.00004;stroke-dasharray:none;stroke-opacity:1;paint-order:fill markers stroke"
     id="rect1"
     width="57.999954"
     height="57.999958"
     x="3.0000229"
     y="3.000021"
     ry="6.9303622" />
</svg>
